<svg id="Capa_1" data-name="Capa 1" xmlns="http://www.w3.org/2000/svg" xmlns:xlink="http://www.w3.org/1999/xlink" viewBox="0 0 4000 4000"><defs><style>.cls-1{fill:none;}.cls-2{fill:#3e68ff;}.cls-3{clip-path:url(#clip-path);}.cls-4,.cls-5{fill:#4cdbfd;}.cls-4{opacity:0.54;}</style><clipPath id="clip-path"><path class="cls-1" d="M3838,2759.65c-7.51-1065.32-827.52-1926.49-1838-1926.49S169.51,1694.33,162,2759.65Z"/></clipPath></defs><g id="asesoria_desarrollo" data-name="asesoria desarrollo"><path class="cls-2" d="M3838,2759.65c-7.51-1065.32-827.52-1926.49-1838-1926.49S169.51,1694.33,162,2759.65Z"/><g class="cls-3"><rect class="cls-4" x="-212.73" y="767.23" width="2236.85" height="2005.29"/></g><path class="cls-5" d="M2365.18,2517.08l494.48-735.84c10.93-16.27-20.6-43.59-35.14-30.45L2165.41,2346c-165.94-69.81-364.2-29.7-487.88,113-154.12,177.87-134.06,447.71,44.82,602.7s448.82,136.46,603-41.41C2450.11,2876.26,2460.67,2671.91,2365.18,2517.08Z"/><circle class="cls-2" cx="2000" cy="2738.75" r="241.21"/></g></svg>