<svg id="Capa_1" data-name="Capa 1" xmlns="http://www.w3.org/2000/svg" viewBox="0 0 4000 4000"><defs><style>.cls-1{fill:#3e68ff;}.cls-2{fill:#4cdbfd;}</style></defs><path class="cls-1" d="M3239.26,1255H1253c-217.59,0-394,176.39-394,394V2288c0,217.58,176.39,394,394,394h0l.28,388c-2.94,106.52,115.79,171.78,204.14,112.2L2086.13,2682H3239.26c235.68,0,426.74-191.06,426.74-426.74V1681.74C3666,1446.06,3474.94,1255,3239.26,1255Z"/><path class="cls-2" d="M2839.26,974.7H853c-217.59,0-394,176.39-394,394v639.05c0,217.59,176.39,394,394,394h0l.29,388c-2.94,106.53,115.78,171.78,204.14,112.2l628.72-500.17H2839.26c235.68,0,426.73-191,426.73-426.73V1401.44C3266,1165.76,3074.94,974.7,2839.26,974.7Z"/></svg>