<svg id="Capa_1" data-name="Capa 1" xmlns="http://www.w3.org/2000/svg" viewBox="0 0 4000 4000"><defs><style>.cls-1{fill:#3e68ff;stroke:#3e68ff;stroke-width:66px;}.cls-1,.cls-2{stroke-miterlimit:10;}.cls-2{fill:#4cdbfd;stroke:#4cdbfd;stroke-width:46px;}</style></defs><path class="cls-1" d="M1398.18,734c248.93,8.17,238,278.86,130.16,387.73a47.24,47.24,0,0,0-13.55,26.21c-5.32,36,5.46,102.37,24.27,121.88,23.36,24.23,48.27,44.21,427.83,35.94a58.65,58.65,0,0,1,13.49,1.25c27,5.69,123.53,32.52,143.41,140.46,10.48,56.91-.45,125,0,182.84.55,70.8-54.83,128.71-132.81,129.59h0c-59.59.68-113.29-32.57-134.32-83.2-20.66-49.73-65.54-122.58-164.2-120.35-72.46,1.64-161.14,82.68-269.24,182-119.23,109.5-241,230.6-269.36,258.9a48.52,48.52,0,0,0-10.23,14.87c-12.6,28.78-47,123.71,4.09,207.61,26,42.64,115.16,127.27,209.76,217.76C1485.35,2559.77,1577,2676,1669,2676.71c75.57.58,127.18-3.8,179.55-124.73,20.93-48.34,72-80.39,129.19-80.73h.82c78.95-.46,138.52,58.54,136.38,130.19v177.84c-.11,3.6,1,7.18,0,10.68-6.57,23.51-39.82,111.54-131.84,134.39a59.83,59.83,0,0,1-13.42,1.74l-362,5.59a59.87,59.87,0,0,0-7.8.63c-20.53,3.06-98.16,20.88-99.95,115.46-1.56,83.1,87.66,97.42,97.06,243.55s-131.49,203.44-195.67,200.58-216-43-205.06-207.74,97-161.89,89.22-249.28c-6.56-73.26-80.21-96.18-103.87-101.68a58.65,58.65,0,0,0-13-1.5l-344-1.36a58.6,58.6,0,0,1-24.69-5.51c-30.88-14.55-110.2-59.49-122.66-150.7-14.33-105-1-387.72,0-434.63.11-4.91-6.14-9.8-7.64-14.52-6.92-21.77-31-81.2-88.55-82.37-70.44-1.43-125.23,98.86-223.84,98.86S171,2267,174.08,2107.94s87.66-206.3,172.19-212c125.23-8.49,150.27,111.74,239.5,97.42s91.49-104.59,91.49-104.59V1464.93c0-2.33-.37-4.65,0-6.94,3.62-22.71,29.23-139.28,146.44-150.91,129.92-12.89,331.85,0,331.85,0s115.83,8.6,131.49-97.42-86.1-131.81-87.66-265.05C1198.4,861.51,1241.64,732.58,1398.18,734Z"/><path class="cls-2" d="M3413.9,1888.74c94.2,2.23,153,101.61,236.37,97.42,82.25-4.13,74-227.79,74-227.79s23.48-183.38,0-310.89-147.53-141.83-147.53-141.83c-385.08,8.59-410.12-11.46-433.6-35.82s-34.44-121.78-17.22-141.83,89.22-90.26,78.26-216.34S3094.57,734.86,3002.22,734c-156.54-1.43-199.78,127.5-198.8,210.6,1.56,133.24,103.31,159,87.66,265.05s-131.49,97.42-131.49,97.42-201.93-12.89-331.85,0-145.58,154.73-145.58,154.73c-.14,36.47.54,466.46-.85,487.1H1706.77v-2.79s0-183.54,0-185.89c-.25-16.94-14-16.12-19.69-14-2.41.89-386.39,348.85-386.39,348.85s-9.39,8.59-7.83,31.52,384.82,359.6,400.47,362.46,13.44-15.76,13.44-15.76V2282.73h569.84c.66,50.23-10.61,329.88,7.11,491.4,15.66,114.61,133.06,156.16,133.06,156.16l361.59,1.43s103.31,15.76,111.14,103.16-78.27,84.52-89.22,249.28S2941.17,3489,3005.35,3491.9s205.06-54.44,195.66-200.58-98.61-160.45-97.05-243.55c2.06-109,104.88-116.05,104.88-116.05l371-5.73c112.7-22.92,144.4-141.83,144.4-141.83V2470.41s33.13-196.44-78.66-220.64c-68.66-14.86-119,108.89-241.06,108.89-94.91,0-186.94-134.2-187.84-257.88C3215.72,1971.43,3332.92,1886.83,3413.9,1888.74Z"/></svg>