<svg id="Capa_1" data-name="Capa 1" xmlns="http://www.w3.org/2000/svg" viewBox="0 0 4000 4000"><defs><style>.cls-1{fill:#3e68ff;}.cls-2{fill:#4cdbfd;}</style></defs><g id="mejoramiento"><path class="cls-1" d="M3513.63,1386.33l-656.86,473c-27.85,20.06-74.12,5.23-74.12-23.75V802.24c0-33.37-58.5-45.55-81.37-16.94l-643.36,804.79c-16,20-54.67,20-70.68,0L1343.88,785.3c-22.87-28.61-81.37-16.43-81.37,16.94V1835.6c0,29-46.27,43.81-74.12,23.75l-656.86-473c-30.48-22-80.6-2-73.5,29.28l369,1298c13.71,48.21,70.41,82.67,136.05,82.67H3071.39c65.33,0,121.86-34.14,135.87-82.07l379.87-1298.55C3594.23,1384.34,3544.11,1364.37,3513.63,1386.33Z"/><rect class="cls-2" x="832.1" y="2878.62" width="2380.95" height="156.27" rx="78.13"/><rect class="cls-1" x="837.79" y="3088.87" width="2380.95" height="332.42" rx="166.21"/><circle class="cls-2" cx="472.69" cy="1371.35" r="183.26"/><circle class="cls-2" cx="2739.99" cy="766.17" r="183.26"/><circle class="cls-2" cx="3575.31" cy="1399.76" r="183.26"/><circle class="cls-2" cx="1305.17" cy="751.96" r="183.26"/></g></svg>