<svg id="Capa_1" data-name="Capa 1" xmlns="http://www.w3.org/2000/svg" xmlns:xlink="http://www.w3.org/1999/xlink" viewBox="0 0 4000 4000"><defs><style>.cls-1{fill:none;}.cls-2{fill:#3e68ff;}.cls-3{clip-path:url(#clip-path);}.cls-4{fill:#4cdbfd;}.cls-5{fill:#18234d;}</style><clipPath id="clip-path"><path class="cls-1" d="M3568.15,1944.56V795.93c0-114.78-93.6-207.28-208.37-206.47C2848.1,594.35,2386,425.09,2160.47,177.14a227,227,0,0,0-320.94,0C1614,425.09,1151.9,594.35,640.22,589.46c-114.77-.81-208.37,91.69-208.37,206.47V1944.56c-1,42-1,84.54,0,126.44v53.27h1.75c75,1216,822.78,1780.35,1566.4,1764.92,743.62,15.43,1491.35-548.89,1566.4-1764.92h1.75V2071C3569.14,2029.1,3569.13,1986.57,3568.15,1944.56Z"/></clipPath></defs><g id="seguridad_informaticva" data-name="seguridad informaticva"><path class="cls-2" d="M3568.15,1944.56V795.93c0-114.78-93.6-207.28-208.37-206.47C2848.1,594.35,2386,425.09,2160.47,177.14a227,227,0,0,0-320.94,0C1614,425.09,1151.9,594.35,640.22,589.46c-114.77-.81-208.37,91.69-208.37,206.47V1944.56c-1,42-1,84.54,0,126.44v53.27h1.75c75,1216,822.78,1780.35,1566.4,1764.92,743.62,15.43,1491.35-548.89,1566.4-1764.92h1.75V2071C3569.14,2029.1,3569.13,1986.57,3568.15,1944.56Z"/><g class="cls-3"><rect class="cls-4" x="-128.47" y="-100.27" width="2131.44" height="5021.34"/></g><rect class="cls-5" x="1908.72" y="140.18" width="182.57" height="3735.95" rx="91.28"/></g></svg>