<svg id="Capa_1" data-name="Capa 1" xmlns="http://www.w3.org/2000/svg" viewBox="0 0 1366 768"><defs><style>.cls-1{font-size:230.11px;font-family:Roboto-Medium, Roboto;font-weight:500;}.cls-1,.cls-3,.cls-8{fill:#112164;}.cls-2{letter-spacing:-0.01em;}.cls-3{font-size:48px;font-family:Roboto-Light, Roboto;font-weight:300;letter-spacing:0.16em;}.cls-4{letter-spacing:0.15em;}.cls-5{letter-spacing:0.14em;}.cls-6{letter-spacing:0.11em;}.cls-7{fill:#4ddffd;}</style></defs><text class="cls-1" transform="translate(263.68 502.25)">NN<tspan class="cls-2" x="326.73" y="0">O</tspan><tspan x="483.14" y="0">VINC</tspan></text><text class="cls-3" transform="translate(398.43 560.59)">Inn<tspan class="cls-4" x="88.26" y="0">ov</tspan><tspan x="152.69" y="0">ation &amp;</tspan><tspan class="cls-5" x="352.13" y="0"> </tspan><tspan class="cls-6" x="370.44" y="0">T</tspan><tspan x="404.37" y="0">echnologies</tspan></text><path class="cls-7" d="M68.18,577.87h82.21V425h-7.73l-.11-7.44h-2.86l-.3-10s-2.41-.11-3-1.89a23,23,0,0,1-.9-4.19,47.86,47.86,0,0,0-10.09-23.62,79,79,0,0,1-6.06-8.55c-5.07-7.57-9.12-18.09-6.43-32.48,4.83-25.86,31.14-27.7,37.52-27.76V156.13l-82.21.36Z"/><path class="cls-8" d="M151.73,156.13V309c6.38.06,32.7,1.9,37.52,27.76,2.69,14.4-1.36,24.91-6.43,32.48a79,79,0,0,1-6.06,8.55,47.86,47.86,0,0,0-10.09,23.62,21.46,21.46,0,0,1-.9,4.19c-.63,1.78-3,1.89-3,1.89l-.31,10h-2.85l-.12,7.44h-7.73v152.9h82.21V156.49Z"/></svg>